<?xml version="1.0" standalone="no"?>
<!DOCTYPE svg PUBLIC "-//W3C//DTD SVG 20010904//EN"
 "http://www.w3.org/TR/2001/REC-SVG-20010904/DTD/svg10.dtd">
<svg version="1.0" xmlns="http://www.w3.org/2000/svg"
  viewBox="0 0 1280.000000 1280.000000"
 preserveAspectRatio="xMidYMid meet">
<g transform="translate(0.000000,1280.000000) scale(0.100000,-0.100000)"
fill='#fff' stroke="none">
<path d="M6010 12793 c-1567 -107 -2955 -722 -4076 -1805 -516 -500 -949
-1094 -1274 -1753 -360 -729 -564 -1452 -642 -2280 -18 -189 -18 -933 0 -1110
46 -457 111 -807 223 -1200 483 -1702 1663 -3137 3244 -3946 715 -366 1435
-580 2255 -670 237 -26 816 -37 1074 -20 1345 89 2608 588 3646 1440 1238
1016 2051 2456 2279 4036 50 346 55 438 55 915 0 477 -5 574 -55 915 -113 780
-376 1553 -756 2224 -630 1110 -1566 2006 -2692 2575 -768 389 -1589 615
-2451 676 -129 9 -714 11 -830 3z m465 -4223 c16 -11 676 -666 1467 -1457
1525 -1527 1460 -1457 1442 -1535 -9 -44 -281 -314 -325 -323 -84 -19 -6 -91
-1359 1260 -859 858 -1264 1256 -1282 1261 -16 3 -40 3 -55 0 -19 -5 -425
-403 -1283 -1260 -881 -880 -1263 -1256 -1283 -1260 -62 -15 -96 7 -244 156
-85 87 -144 154 -148 171 -4 15 -4 44 0 65 6 33 162 193 1443 1476 790 791
1451 1447 1467 1458 36 23 112 18 160 -12z"/>
</g>
</svg>
